<svg width="226" height="29" viewBox="0 0 226 29" fill="none" xmlns="http://www.w3.org/2000/svg">
<g filter="url(#filter0_d_0_167)">
<path d="M49.8125 10.9062C49.8125 12.0625 49.4167 12.9531 48.625 13.5781C47.8385 14.1979 46.7109 14.5078 45.2422 14.5078H43.8984V19H42.5703V7.57812H45.5312C48.3854 7.57812 49.8125 8.6875 49.8125 10.9062ZM43.8984 13.3672H45.0938C46.2708 13.3672 47.1224 13.1771 47.6484 12.7969C48.1745 12.4167 48.4375 11.8073 48.4375 10.9688C48.4375 10.2135 48.1901 9.65104 47.6953 9.28125C47.2005 8.91146 46.4297 8.72656 45.3828 8.72656H43.8984V13.3672ZM57.875 19V13.4609C57.875 12.763 57.7161 12.2422 57.3984 11.8984C57.0807 11.5547 56.5833 11.3828 55.9062 11.3828C55.0052 11.3828 54.3464 11.6276 53.9297 12.1172C53.5182 12.6068 53.3125 13.4089 53.3125 14.5234V19H52.0156V6.84375H53.3125V10.5234C53.3125 10.9661 53.2917 11.3333 53.25 11.625H53.3281C53.5833 11.2135 53.9453 10.8906 54.4141 10.6562C54.888 10.4167 55.4271 10.2969 56.0312 10.2969C57.0781 10.2969 57.862 10.5469 58.3828 11.0469C58.9089 11.5417 59.1719 12.3307 59.1719 13.4141V19H57.875ZM69.2344 14.7109C69.2344 16.1068 68.8828 17.1979 68.1797 17.9844C67.4766 18.7656 66.5052 19.1562 65.2656 19.1562C64.5 19.1562 63.8203 18.9766 63.2266 18.6172C62.6328 18.2578 62.1745 17.7422 61.8516 17.0703C61.5286 16.3984 61.3672 15.612 61.3672 14.7109C61.3672 13.3151 61.7161 12.2292 62.4141 11.4531C63.112 10.6719 64.0807 10.2812 65.3203 10.2812C66.5182 10.2812 67.4688 10.6797 68.1719 11.4766C68.8802 12.2734 69.2344 13.3516 69.2344 14.7109ZM62.7109 14.7109C62.7109 15.8047 62.9297 16.638 63.3672 17.2109C63.8047 17.7839 64.4479 18.0703 65.2969 18.0703C66.1458 18.0703 66.7891 17.7865 67.2266 17.2188C67.6693 16.6458 67.8906 15.8099 67.8906 14.7109C67.8906 13.6224 67.6693 12.7969 67.2266 12.2344C66.7891 11.6667 66.1406 11.3828 65.2812 11.3828C64.4323 11.3828 63.7917 11.6615 63.3594 12.2188C62.9271 12.776 62.7109 13.6068 62.7109 14.7109ZM77.375 19V13.4609C77.375 12.763 77.2161 12.2422 76.8984 11.8984C76.5807 11.5547 76.0833 11.3828 75.4062 11.3828C74.5104 11.3828 73.8542 11.625 73.4375 12.1094C73.0208 12.5938 72.8125 13.3932 72.8125 14.5078V19H71.5156V10.4375H72.5703L72.7812 11.6094H72.8438C73.1094 11.1875 73.4818 10.862 73.9609 10.6328C74.4401 10.3984 74.974 10.2812 75.5625 10.2812C76.5938 10.2812 77.3698 10.5312 77.8906 11.0312C78.4115 11.526 78.6719 12.3203 78.6719 13.4141V19H77.375ZM84.9609 19.1562C83.6953 19.1562 82.6953 18.7708 81.9609 18C81.2318 17.2292 80.8672 16.1589 80.8672 14.7891C80.8672 13.4089 81.2057 12.3125 81.8828 11.5C82.5651 10.6875 83.4792 10.2812 84.625 10.2812C85.6979 10.2812 86.5469 10.6354 87.1719 11.3438C87.7969 12.0469 88.1094 12.9766 88.1094 14.1328V14.9531H82.2109C82.237 15.9583 82.4896 16.7214 82.9688 17.2422C83.4531 17.763 84.1328 18.0234 85.0078 18.0234C85.9297 18.0234 86.8411 17.8307 87.7422 17.4453V18.6016C87.2839 18.7995 86.849 18.9401 86.4375 19.0234C86.0312 19.112 85.5391 19.1562 84.9609 19.1562ZM84.6094 11.3672C83.9219 11.3672 83.3724 11.5911 82.9609 12.0391C82.5547 12.487 82.3151 13.1068 82.2422 13.8984H86.7188C86.7188 13.0807 86.5365 12.4557 86.1719 12.0234C85.8073 11.5859 85.2865 11.3672 84.6094 11.3672ZM90.1406 18.1719C90.1406 17.8229 90.2188 17.5599 90.375 17.3828C90.5365 17.2005 90.7656 17.1094 91.0625 17.1094C91.3646 17.1094 91.599 17.2005 91.7656 17.3828C91.9375 17.5599 92.0234 17.8229 92.0234 18.1719C92.0234 18.5104 91.9375 18.7708 91.7656 18.9531C91.5938 19.1354 91.3594 19.2266 91.0625 19.2266C90.7969 19.2266 90.5755 19.1458 90.3984 18.9844C90.2266 18.8177 90.1406 18.5469 90.1406 18.1719ZM90.1406 11.2734C90.1406 10.5703 90.4479 10.2188 91.0625 10.2188C91.7031 10.2188 92.0234 10.5703 92.0234 11.2734C92.0234 11.612 91.9375 11.8724 91.7656 12.0547C91.5938 12.237 91.3594 12.3281 91.0625 12.3281C90.7969 12.3281 90.5755 12.2474 90.3984 12.0859C90.2266 11.9193 90.1406 11.6484 90.1406 11.2734ZM102.477 12.8203H105.695V13.8984H102.477V17.2266H101.391V13.8984H98.1875V12.8203H101.391V9.47656H102.477V12.8203ZM112.117 19H110.852V10.8594C110.852 10.1823 110.872 9.54167 110.914 8.9375C110.805 9.04688 110.682 9.16146 110.547 9.28125C110.411 9.40104 109.792 9.90885 108.688 10.8047L108 9.91406L111.023 7.57812H112.117V19ZM116.344 15.3047V14.1172H120.18V15.3047H116.344ZM125.195 12.0234C126.398 12.0234 127.344 12.3229 128.031 12.9219C128.724 13.5156 129.07 14.3307 129.07 15.3672C129.07 16.5495 128.693 17.4766 127.938 18.1484C127.188 18.8203 126.151 19.1562 124.828 19.1562C123.542 19.1562 122.56 18.9505 121.883 18.5391V17.2891C122.247 17.5234 122.701 17.7083 123.242 17.8438C123.784 17.974 124.318 18.0391 124.844 18.0391C125.76 18.0391 126.471 17.8229 126.977 17.3906C127.487 16.9583 127.742 16.3333 127.742 15.5156C127.742 13.9219 126.766 13.125 124.812 13.125C124.318 13.125 123.656 13.2005 122.828 13.3516L122.156 12.9219L122.586 7.57812H128.266V8.77344H123.695L123.406 12.2031C124.005 12.0833 124.602 12.0234 125.195 12.0234ZM138.828 16.375H137.133V19H135.891V16.375H130.336V15.2422L135.758 7.51562H137.133V15.1953H138.828V16.375ZM135.891 15.1953V11.3984C135.891 10.6536 135.917 9.8125 135.969 8.875H135.906C135.656 9.375 135.422 9.78906 135.203 10.1172L131.633 15.1953H135.891ZM147.016 10.2656C147.016 10.9948 146.81 11.5911 146.398 12.0547C145.992 12.5182 145.414 12.8281 144.664 12.9844V13.0469C145.581 13.1615 146.26 13.4531 146.703 13.9219C147.146 14.3906 147.367 15.0052 147.367 15.7656C147.367 16.8542 146.99 17.6927 146.234 18.2812C145.479 18.8646 144.406 19.1562 143.016 19.1562C142.411 19.1562 141.857 19.1094 141.352 19.0156C140.852 18.9271 140.365 18.7682 139.891 18.5391V17.3047C140.385 17.5495 140.911 17.737 141.469 17.8672C142.031 17.9922 142.562 18.0547 143.062 18.0547C145.036 18.0547 146.023 17.2812 146.023 15.7344C146.023 14.349 144.935 13.6562 142.758 13.6562H141.633V12.5391H142.773C143.664 12.5391 144.37 12.3438 144.891 11.9531C145.411 11.5573 145.672 11.0104 145.672 10.3125C145.672 9.75521 145.479 9.31771 145.094 9C144.714 8.68229 144.195 8.52344 143.539 8.52344C143.039 8.52344 142.568 8.59115 142.125 8.72656C141.682 8.86198 141.177 9.11198 140.609 9.47656L139.953 8.60156C140.422 8.23177 140.961 7.94271 141.57 7.73438C142.185 7.52083 142.831 7.41406 143.508 7.41406C144.617 7.41406 145.479 7.66927 146.094 8.17969C146.708 8.6849 147.016 9.38021 147.016 10.2656ZM148.969 15.3047V14.1172H152.805V15.3047H148.969ZM159.055 19H157.789V10.8594C157.789 10.1823 157.81 9.54167 157.852 8.9375C157.742 9.04688 157.62 9.16146 157.484 9.28125C157.349 9.40104 156.729 9.90885 155.625 10.8047L154.938 9.91406L157.961 7.57812H159.055V19ZM170.914 19H163.406V17.8828L166.414 14.8594C167.331 13.9323 167.935 13.2708 168.227 12.875C168.518 12.4792 168.737 12.0938 168.883 11.7188C169.029 11.3438 169.102 10.9401 169.102 10.5078C169.102 9.89844 168.917 9.41667 168.547 9.0625C168.177 8.70312 167.664 8.52344 167.008 8.52344C166.534 8.52344 166.083 8.60156 165.656 8.75781C165.234 8.91406 164.763 9.19792 164.242 9.60938L163.555 8.72656C164.607 7.85156 165.753 7.41406 166.992 7.41406C168.065 7.41406 168.906 7.6901 169.516 8.24219C170.125 8.78906 170.43 9.52604 170.43 10.4531C170.43 11.1771 170.227 11.8932 169.82 12.6016C169.414 13.3099 168.654 14.2057 167.539 15.2891L165.039 17.7344V17.7969H170.914V19ZM179.641 10.2656C179.641 10.9948 179.435 11.5911 179.023 12.0547C178.617 12.5182 178.039 12.8281 177.289 12.9844V13.0469C178.206 13.1615 178.885 13.4531 179.328 13.9219C179.771 14.3906 179.992 15.0052 179.992 15.7656C179.992 16.8542 179.615 17.6927 178.859 18.2812C178.104 18.8646 177.031 19.1562 175.641 19.1562C175.036 19.1562 174.482 19.1094 173.977 19.0156C173.477 18.9271 172.99 18.7682 172.516 18.5391V17.3047C173.01 17.5495 173.536 17.737 174.094 17.8672C174.656 17.9922 175.188 18.0547 175.688 18.0547C177.661 18.0547 178.648 17.2812 178.648 15.7344C178.648 14.349 177.56 13.6562 175.383 13.6562H174.258V12.5391H175.398C176.289 12.5391 176.995 12.3438 177.516 11.9531C178.036 11.5573 178.297 11.0104 178.297 10.3125C178.297 9.75521 178.104 9.31771 177.719 9C177.339 8.68229 176.82 8.52344 176.164 8.52344C175.664 8.52344 175.193 8.59115 174.75 8.72656C174.307 8.86198 173.802 9.11198 173.234 9.47656L172.578 8.60156C173.047 8.23177 173.586 7.94271 174.195 7.73438C174.81 7.52083 175.456 7.41406 176.133 7.41406C177.242 7.41406 178.104 7.66927 178.719 8.17969C179.333 8.6849 179.641 9.38021 179.641 10.2656ZM181.594 15.3047V14.1172H185.43V15.3047H181.594ZM194.922 16.375H193.227V19H191.984V16.375H186.43V15.2422L191.852 7.51562H193.227V15.1953H194.922V16.375ZM191.984 15.1953V11.3984C191.984 10.6536 192.01 9.8125 192.062 8.875H192C191.75 9.375 191.516 9.78906 191.297 10.1172L187.727 15.1953H191.984ZM199.602 12.0234C200.805 12.0234 201.75 12.3229 202.438 12.9219C203.13 13.5156 203.477 14.3307 203.477 15.3672C203.477 16.5495 203.099 17.4766 202.344 18.1484C201.594 18.8203 200.557 19.1562 199.234 19.1562C197.948 19.1562 196.966 18.9505 196.289 18.5391V17.2891C196.654 17.5234 197.107 17.7083 197.648 17.8438C198.19 17.974 198.724 18.0391 199.25 18.0391C200.167 18.0391 200.878 17.8229 201.383 17.3906C201.893 16.9583 202.148 16.3333 202.148 15.5156C202.148 13.9219 201.172 13.125 199.219 13.125C198.724 13.125 198.062 13.2005 197.234 13.3516L196.562 12.9219L196.992 7.57812H202.672V8.77344H198.102L197.812 12.2031C198.411 12.0833 199.008 12.0234 199.602 12.0234ZM205.32 14.1172C205.32 11.8724 205.755 10.1953 206.625 9.08594C207.5 7.97135 208.792 7.41406 210.5 7.41406C211.089 7.41406 211.552 7.46354 211.891 7.5625V8.67969C211.49 8.54948 211.031 8.48438 210.516 8.48438C209.292 8.48438 208.357 8.86719 207.711 9.63281C207.065 10.3932 206.711 11.5911 206.648 13.2266H206.742C207.315 12.3307 208.221 11.8828 209.461 11.8828C210.487 11.8828 211.294 12.1927 211.883 12.8125C212.477 13.4323 212.773 14.2734 212.773 15.3359C212.773 16.5234 212.448 17.4583 211.797 18.1406C211.151 18.8177 210.276 19.1562 209.172 19.1562C207.99 19.1562 207.052 18.7135 206.359 17.8281C205.667 16.9375 205.32 15.7005 205.32 14.1172ZM209.156 18.0547C209.896 18.0547 210.469 17.8229 210.875 17.3594C211.286 16.8906 211.492 16.2161 211.492 15.3359C211.492 14.5807 211.302 13.987 210.922 13.5547C210.542 13.1224 209.974 12.9062 209.219 12.9062C208.75 12.9062 208.32 13.0026 207.93 13.1953C207.539 13.388 207.227 13.6536 206.992 13.9922C206.763 14.3307 206.648 14.6823 206.648 15.0469C206.648 15.5833 206.753 16.0833 206.961 16.5469C207.169 17.0104 207.464 17.3776 207.844 17.6484C208.229 17.9193 208.667 18.0547 209.156 18.0547ZM215.789 19L220.523 8.77344H214.297V7.57812H221.898V8.61719L217.227 19H215.789Z" fill="white"/>
<path fill-rule="evenodd" clip-rule="evenodd" d="M21 15.5C19.8 15.5 18.6 15.3 17.4 14.9C17.1 14.8 16.7 14.9 16.4 15.1L14.2 17.3C11.4 15.9 9.1 13.5 7.6 10.7L9.8 8.5C10.1 8.2 10.2 7.8 10 7.5C9.7 6.4 9.5 5.2 9.5 4C9.5 3.4 9.1 3 8.5 3H5C4.4 3 4 3.4 4 4C4 13.4 11.6 21 21 21C21.6 21 22 20.6 22 20V16.5C22 15.9 21.6 15.5 21 15.5ZM20 12H22C22 7 18 3 13 3V5C16.9 5 20 8.1 20 12ZM16 12H18C18 9.2 15.8 7 13 7V9C14.7 9 16 10.3 16 12Z" fill="white"/>
</g>
<defs>
<filter id="filter0_d_0_167" x="-3" y="0" width="230" height="33" filterUnits="userSpaceOnUse" color-interpolation-filters="sRGB">
<feFlood flood-opacity="0" result="BackgroundImageFix"/>
<feColorMatrix in="SourceAlpha" type="matrix" values="0 0 0 0 0 0 0 0 0 0 0 0 0 0 0 0 0 0 127 0" result="hardAlpha"/>
<feOffset dy="4"/>
<feGaussianBlur stdDeviation="2"/>
<feComposite in2="hardAlpha" operator="out"/>
<feColorMatrix type="matrix" values="0 0 0 0 0 0 0 0 0 0 0 0 0 0 0 0 0 0 0.25 0"/>
<feBlend mode="normal" in2="BackgroundImageFix" result="effect1_dropShadow_0_167"/>
<feBlend mode="normal" in="SourceGraphic" in2="effect1_dropShadow_0_167" result="shape"/>
</filter>
</defs>
</svg>
